<svg width="23" height="23" viewBox="0 0 23 23" fill="none" xmlns="http://www.w3.org/2000/svg">
<circle cx="11.5" cy="11.5" r="11" stroke="#FFBA58"/>
<path d="M11.501 14.4463C11.4692 14.4159 11.4303 14.376 11.3857 14.3232C11.2238 14.1314 11.0287 13.8377 10.8145 13.457C10.3885 12.7003 9.92297 11.6671 9.51953 10.5938C9.11579 9.51953 8.78256 8.42653 8.61523 7.55078C8.53122 7.11101 8.49303 6.7464 8.50098 6.47559C8.50992 6.17245 8.57384 6.11023 8.55566 6.12793C8.71417 5.97353 9.07501 5.80448 9.63965 5.68066C10.1816 5.56187 10.8362 5.50001 11.5 5.5C12.1641 5.5 12.8192 5.56178 13.3613 5.68066C13.9259 5.80448 14.2859 5.97358 14.4443 6.12793C14.4262 6.11021 14.4901 6.17242 14.499 6.47559C14.5069 6.74641 14.4688 7.11102 14.3848 7.55078C14.2174 8.42653 13.8852 9.51954 13.4814 10.5938C13.078 11.6672 12.6115 12.7002 12.1855 13.457C11.9713 13.8377 11.7761 14.1315 11.6143 14.3232C11.5702 14.3754 11.5326 14.416 11.501 14.4463Z" fill="#FFBA5A" stroke="#FFBA58"/>
<circle cx="11.5" cy="17.5" r="1" fill="#FFBA5A" stroke="#FFBA58"/>
</svg>
